<?xml version="1.0" encoding="utf-8"?>
<!-- Generator: Adobe Illustrator 26.0.3, SVG Export Plug-In . SVG Version: 6.00 Build 0)  -->
<svg version="1.1" id="Layer_1" xmlns="http://www.w3.org/2000/svg" xmlns:xlink="http://www.w3.org/1999/xlink" x="0px" y="0px"
	 viewBox="0 0 1000 1000" style="enable-background:new 0 0 1000 1000;" xml:space="preserve">
<g>
	<path d="M116.6,532.4c-13.2,20.5-21,45.7-29.2,68.4c-17.1,6.5-35.6,12.9-53.8,15.1c25.5-72.9,59.2-155.1,97.9-221.6
		c19.4-6.2,40.7-11.2,60.9-12.6c-14.3,22.2-25.8,46.8-37.6,70.4c34.5-19.6,68.2-40.9,101.5-62.3c4.2,16,6.2,33.1,6.2,49.6v5
		c-32.3,16.5-63.4,36.5-94.2,55.5c0,28.6,8.1,59.2,16.5,86.1c-9.8,11.8-39.3,26.1-52.7,32C123.1,595.8,119.2,556.2,116.6,532.4z"/>
	<path d="M197.3,601c-0.4-24.7,36.6-103.4,49.4-126.8c12.5-4.5,26.6-6.9,40.4-8.4c-9.2,15.5-41.7,77-41.5,92.2
		c0,2.8,1.9,4.3,4.7,4.3c4.9,0,14.8-4.5,19.6-6.4c12.2-30.7,28-60.4,44.7-88.4c13.3-6.9,31.6-10.8,46.6-12.2
		c-27.1,44.1-50.5,92.9-68.6,141.4c-24.3,5.8-50.5,12.5-75.5,12.5C212.1,609.2,197.5,609.1,197.3,601z"/>
	<path d="M373.3,616.3l3.2-72.5c-9.7,16.3-16.3,34-22.1,52c-13.6,3.6-27.5,6.5-41.3,8.8c16.6-47.7,37-94.2,60.8-138.7l42.6-10.1
		c-1.3,22.8-2.6,45.8-3.7,68.6c9.2-19.1,17.4-38.5,26.7-57.6c11.6-3.2,23.6-6.2,35.7-6.2c2.8,0,5.6,0.2,8.4,0.7
		c-12.2,18.7-22.4,38.5-32.3,58.5c-14.6,28.8-28,58.2-41.5,87.5L373.3,616.3z"/>
	<path d="M453.7,573c0-9.5,2.1-18.9,5.2-27.9c16.8-46.7,60.8-87.7,112.6-87.7c7.5,0,14.8,0.9,22.1,2.6
		c-4.1,13.8-10.7,26.9-18.7,38.9c-4.9-1.7-9.9-2.4-15-2.4c-33.7,0-71.6,32.3-71.6,66.9c0,8,2.2,15.1,11.8,15.1
		c14.2,0,27.1-14.8,32.9-26.6l-21.1,1.1l14.6-23.6c18-4.7,36.5-7.5,55-9.7c-13.3,33.8-34,66-66.6,84.1c-8,4.5-16.8,7.5-26,7.5
		C466.2,611.5,453.7,594.5,453.7,573z"/>
	<path d="M656.8,397.2c31.7-10.1,72.9-14.3,105.5-17.7l-26.9,49.4c-13.7,2.2-27.8,6.2-41.5,10.1c-11.5,17.4-18.8,31.4-28.3,49.9
		c14.9-2.5,37.9-7,56.7-7.3l-28.3,47.7c-16.5,4.5-33.1,8.1-49.9,11.2c-9.8,10.1-25.2,51-29.7,63.7c-18.2,7.6-46,16.3-65.1,16.3
		C575.5,552.3,616.4,456.7,656.8,397.2z"/>
	<path d="M686.5,601c-0.4-24.7,36.6-103.4,49.4-126.8c12.5-4.5,26.6-6.9,40.4-8.4c-9.2,15.5-41.7,77-41.5,92.2
		c0,2.8,1.9,4.3,4.7,4.3c4.9,0,14.8-4.5,19.6-6.4c12.2-30.7,28-60.4,44.7-88.4c13.3-6.9,31.6-10.8,46.6-12.2
		c-27.1,44.1-50.5,92.9-68.6,141.4c-24.3,5.8-50.5,12.5-75.5,12.5C701.2,609.2,686.7,609.1,686.5,601z"/>
	<path d="M808,592c0-17.4,41.5-102.5,51.8-121.7c12-6.2,29.4-9.9,42.8-9.9h3c-7.9,10.8-22.1,36.3-37.4,65.8
		c-4.9,9.2-16.5,35.3-16.5,45.3c0,1.7,0.2,3.7,2.4,3.7c8.8,0,20.6-4.1,24.7-12.3c5.2-10.3,9.9-21.3,15-31.8
		c9-18.3,18.3-36.3,27.3-54.6c14.6-4.3,30.1-7.1,45.2-9.5c-20.2,35.7-37,73.5-53.7,111.1c-11.4,26-29.2,29.5-55,35.3
		c-5.6,1.3-11.2,2.1-17,2.1C826.9,615.4,808,608.7,808,592z"/>
</g>
</svg>
